<svg width="600" height="400" xmlns="http://www.w3.org/2000/svg">
  <defs>
    <linearGradient id="datejustGradient" x1="0%" y1="0%" x2="100%" y2="100%">
      <stop offset="0%" style="stop-color:#c9b037;stop-opacity:1" />
      <stop offset="50%" style="stop-color:#e6d690;stop-opacity:1" />
      <stop offset="100%" style="stop-color:#a89020;stop-opacity:1" />
    </linearGradient>
  </defs>
  
  <ellipse cx="200" cy="200" rx="80" ry="80" fill="url(#datejustGradient)" stroke="#a89020" stroke-width="3"/>
  
  <circle cx="200" cy="200" r="70" fill="#f5f5f5" stroke="#c9b037" stroke-width="2"/>
  
  <circle cx="200" cy="200" r="5" fill="#333"/>
  
  <line x1="200" y1="200" x2="200" y2="150" stroke="#333" stroke-width="3" stroke-linecap="round"/>
  <line x1="200" y1="200" x2="230" y2="200" stroke="#333" stroke-width="2" stroke-linecap="round"/>
  
  <rect x="215" y="185" width="25" height="30" rx="2" fill="white" stroke="#c9b037" stroke-width="1"/>
  <text x="220" y="205" font-family="Arial, sans-serif" font-size="16" fill="#333" font-weight="bold">16</text>
  
  <rect x="180" y="100" width="40" height="15" rx="3" fill="url(#datejustGradient)" stroke="#a89020" stroke-width="1"/>
  
  <rect x="120" y="180" width="160" height="40" rx="5" fill="url(#datejustGradient)" stroke="#a89020" stroke-width="2"/>
  <rect x="120" y="140" width="160" height="40" rx="5" fill="url(#datejustGradient)" stroke="#a89020" stroke-width="2"/>
  <rect x="120" y="220" width="160" height="40" rx="5" fill="url(#datejustGradient)" stroke="#a89020" stroke-width="2"/>
  <rect x="120" y="260" width="160" height="40" rx="5" fill="url(#datejustGradient)" stroke="#a89020" stroke-width="2"/>
  
  <text x="300" y="100" font-family="Arial, sans-serif" font-size="14" fill="#c9b037" font-weight="bold">ROLEX</text>
  <text x="300" y="120" font-family="Arial, sans-serif" font-size="10" fill="#d4af37">DATEJUST</text>
</svg>
