<svg width="600" height="400" xmlns="http://www.w3.org/2000/svg">
  <defs>
    <linearGradient id="daytonaGradient" x1="0%" y1="0%" x2="100%" y2="100%">
      <stop offset="0%" style="stop-color:#FFD700;stop-opacity:1" />
      <stop offset="50%" style="stop-color:#FFA500;stop-opacity:1" />
      <stop offset="100%" style="stop-color:#FF8C00;stop-opacity:1" />
    </linearGradient>
  </defs>
  
  <ellipse cx="200" cy="200" rx="80" ry="80" fill="url(#daytonaGradient)" stroke="#FF8C00" stroke-width="3"/>
  
  <circle cx="200" cy="200" r="70" fill="#2a2a2a" stroke="#FFD700" stroke-width="2"/>
  
  <circle cx="180" cy="180" r="15" fill="#1a1a1a" stroke="#FFD700" stroke-width="1"/>
  <circle cx="220" cy="180" r="15" fill="#1a1a1a" stroke="#FFD700" stroke-width="1"/>
  <circle cx="200" cy="220" r="15" fill="#1a1a1a" stroke="#FFD700" stroke-width="1"/>
  
  <circle cx="200" cy="200" r="5" fill="#FFD700"/>
  
  <line x1="200" y1="200" x2="200" y2="150" stroke="#FFD700" stroke-width="3" stroke-linecap="round"/>
  <line x1="200" y1="200" x2="230" y2="200" stroke="#FFD700" stroke-width="2" stroke-linecap="round"/>
  
  <rect x="180" y="100" width="40" height="15" rx="3" fill="url(#daytonaGradient)" stroke="#FF8C00" stroke-width="1"/>
  
  <rect x="120" y="180" width="160" height="40" rx="5" fill="url(#daytonaGradient)" stroke="#FF8C00" stroke-width="2"/>
  <rect x="120" y="140" width="160" height="40" rx="5" fill="url(#daytonaGradient)" stroke="#FF8C00" stroke-width="2"/>
  <rect x="120" y="220" width="160" height="40" rx="5" fill="url(#daytonaGradient)" stroke="#FF8C00" stroke-width="2"/>
  <rect x="120" y="260" width="160" height="40" rx="5" fill="url(#daytonaGradient)" stroke="#FF8C00" stroke-width="2"/>
  
  <text x="300" y="100" font-family="Arial, sans-serif" font-size="14" fill="#FFD700" font-weight="bold">ROLEX</text>
  <text x="300" y="120" font-family="Arial, sans-serif" font-size="10" fill="#FFA500">DAYTONA</text>
</svg>
